<svg xmlns="http://www.w3.org/2000/svg" width="1777.806" height="436.572" viewBox="0 0 1777.806 436.572">
  <g id="Group_39" data-name="Group 39" transform="translate(-129.863 -146.16)">
    <g id="Group_37" data-name="Group 37" transform="translate(138.173 238.732)">
      <path id="Path_36" data-name="Path 36" d="M135.2,418.953a8.355,8.355,0,0,1-2.614-6.1V186.327a8.193,8.193,0,0,1,2.614-6.273,8.66,8.66,0,0,1,6.1-2.44h37.638q8.364,0,12.2,7.665L252.47,295.061,313.8,185.28q3.83-7.654,12.2-7.665h37.29a9.1,9.1,0,0,1,6.447,2.44,8.193,8.193,0,0,1,2.614,6.273V412.854a8.183,8.183,0,0,1-2.614,6.273,9.079,9.079,0,0,1-6.447,2.437h-41.47a9.086,9.086,0,0,1-6.45-2.437,8.194,8.194,0,0,1-2.614-6.273V282.164L273.727,355q-4.535,8.021-12.2,8.016H243.406a11.891,11.891,0,0,1-7.317-2.092,18.024,18.024,0,0,1-4.88-5.924l-39.379-72.839v130.69a8.679,8.679,0,0,1-2.44,6.1,8.206,8.206,0,0,1-6.272,2.611H141.3A8.358,8.358,0,0,1,135.2,418.953Z" transform="translate(-132.584 -174.131)" fill="#171c2d"/>
      <path id="Path_37" data-name="Path 37" d="M254.768,403.346Q226.542,379.3,224.8,332.6q-.348-10.105-.348-29.97,0-20.21.348-30.321,1.741-46,30.5-70.921t76.842-24.916q48.093,0,77.02,24.916t30.321,70.921q.692,20.215.7,30.321,0,9.757-.7,29.97-1.75,46.7-29.973,70.744t-77.368,24.049Q283,427.395,254.768,403.346Zm107.863-37.635q11.319-11.5,12.023-35.2.692-20.21.7-28.577,0-9.056-.7-28.574-.7-23.7-12.2-35.2t-30.321-11.5q-18.817,0-30.144,11.5t-12.374,35.2q-.348,9.762-.345,28.574,0,18.478.345,28.577,1.049,23.7,12.2,35.2t30.318,11.5Q351.3,377.209,362.631,365.711Z" transform="translate(56.089 -176.474)" fill="#171c2d"/>
      <path id="Path_38" data-name="Path 38" d="M372.246,411.111l-71.1-223.039-.7-3.139a6.992,6.992,0,0,1,2.266-5.051,7.372,7.372,0,0,1,5.4-2.266h43.214a12.3,12.3,0,0,1,8.19,2.788,13.25,13.25,0,0,1,4.358,6.272l49.487,161.008,49.139-161.008a13.164,13.164,0,0,1,4.358-6.272,12.275,12.275,0,0,1,8.187-2.788h43.562a7.78,7.78,0,0,1,7.32,7.317l-.7,3.139-71.1,223.039q-3.138,10.453-14.289,10.453H386.532Q375.378,421.564,372.246,411.111Z" transform="translate(212.188 -174.131)" fill="#171c2d"/>
      <path id="Path_39" data-name="Path 39" d="M558.707,418.953a8.345,8.345,0,0,1-2.617-6.1V186.327a8.184,8.184,0,0,1,2.617-6.273,8.655,8.655,0,0,1,6.1-2.44h90.609q51.231,0,79.456,24.4t29.622,70.744q.344,10.114.348,26.834t-.348,26.489q-1.745,48.441-28.751,71.963t-78.583,23.523H564.805A8.353,8.353,0,0,1,558.707,418.953Zm96.707-47.572q23,0,33.805-10.978t11.5-35.024q.7-10.1.7-26.137t-.7-25.786q-.7-23.348-12.371-34.5T653.671,227.8h-34.85V371.381Z" transform="translate(737.208 -174.131)" fill="#171c2d"/>
      <path id="Path_40" data-name="Path 40" d="M631.389,419.3a6.975,6.975,0,0,1-2.263-5.051,10.482,10.482,0,0,1,.348-3.136l81.9-223.739A12.662,12.662,0,0,1,715.9,180.4a14.064,14.064,0,0,1,9.061-2.788h51.578A14.081,14.081,0,0,1,785.6,180.4a12.718,12.718,0,0,1,4.532,6.969l81.548,223.739.7,3.136a6.989,6.989,0,0,1-2.266,5.051,7.357,7.357,0,0,1-5.4,2.266H821.847q-8.368,0-11.152-7.317L797.1,378.7H704.054l-13.244,35.549q-2.794,7.32-11.5,7.317H636.446A6.979,6.979,0,0,1,631.389,419.3Zm151.776-90.78-32.413-92-32.41,92Z" transform="translate(887.209 -174.131)" fill="#171c2d"/>
    </g>
    <g id="Group_38" data-name="Group 38" transform="translate(891.893 146.16)">
      <path id="Path_41" data-name="Path 41" d="M379.4,272.9c7.048-23.8,14.206-47.557,21.111-71.394,5.842-20.173,8.951-22.65,30.358-22.65q201.779-.009,403.555,0c20.518,0,24.006,2.66,29.536,22.335,6.544,23.288,12.936,46.622,19.724,69.837,1.979,6.767,2.48,12.933-4.663,16.268-7.619,3.558-12.484-.693-16.078-7.363-6.6-12.24-13.443-24.342-22.094-36.169-.577,10.294-1.295,20.579-1.7,30.88-1.682,42.109-3.17,84.224-5.026,126.323-.226,5.075-.785,11.522-3.884,14.722-3.57,3.689-11.1,7.256-15.156,5.839-5.127-1.789-11.385-8.26-12.093-13.409-3.106-22.574-4.391-45.4-6.312-68.136-.266-3.148-.29-6.318-.6-9.464-.684-6.92-3.457-12.878-11.165-12.933-8.111-.055-11.186,5.61-11.775,13.293q-2.776,36.229-6.077,72.414c-.373,4.089-.647,9.687-3.231,11.742-4.474,3.552-10.826,6.929-16.191,6.645-7.567-.4-11.879-6.633-12.295-14.713-1.206-23.5-2.516-46.989-3.68-70.488-1.68-34.019-3.5-68.038-4.721-102.076-.3-8.337-2.449-12.188-11.464-11.314-7.616.739-15.361.153-24.369.153C689.8,246.3,688.4,268.6,687.3,290.91c-1.786,36.126-3.377,72.262-5.06,108.391-.1,2.1-.235,4.211-.476,6.3-1.212,10.618-6.633,16.582-15.29,16.887-8.978.318-15.486-5.805-16.536-16.823-1.964-20.619-3.384-41.287-5.048-61.931-.394-4.9-.754-9.8-1.3-14.686-.757-6.767-4.312-11.592-11.351-11.446-6.963.144-10.432,4.941-11,11.791q-2.895,34.635-5.818,69.269c-.293,3.494-.226,7.076-1,10.462-1.957,8.578-7.375,13.8-16.387,13.211-8.862-.58-14.133-5.949-14.661-14.97-1.347-23.139-2.5-46.286-3.652-69.434-1.673-33.668-3.261-67.342-4.947-101.013-.208-4.147-.8-8.279-1.341-13.614-10.288,0-20.063-.553-29.686.415-2.217.223-5.433,5.576-5.613,8.715-2.575,44.872-4.706,89.769-6.941,134.663-.629,12.624-1.185,25.255-1.893,37.879-.614,10.963-6.443,17.416-15.587,17.5-9.073.092-15.257-6.376-16.176-17.19-2.08-24.485-4.208-48.97-6.013-73.477-.586-7.973-3.182-14.359-11.965-14.2-8.325.153-10.6,6.844-11.177,14.06-1.921,24.149-3.637,48.314-5.839,72.436-1.13,12.383-6.853,18.424-16.057,18.378-9.723-.046-15.51-6.844-16.051-19.526Q427.124,325.605,424,248.236c-.058-1.39-.266-2.77-.733-7.454-7.808,14.09-14.228,25.759-20.729,37.381-6.929,12.389-11.262,13.351-23.139,5.277Z" transform="translate(-379.399 -79.012)" fill="#3afffc"/>
      <path id="Path_42" data-name="Path 42" d="M442.688,146.162a42.139,42.139,0,1,1-42.582,41.69A42.122,42.122,0,0,1,442.688,146.162Z" transform="translate(-336.874 -146.16)" fill="#3afffc"/>
      <path id="Path_43" data-name="Path 43" d="M580.993,188.744a42.14,42.14,0,1,1-41.69-42.582A42.128,42.128,0,0,1,580.993,188.744Z" transform="translate(-138.453 -146.16)" fill="#3afffc"/>
      <path id="Path_44" data-name="Path 44" d="M532.72,188.7a42.147,42.147,0,1,1-41.687-42.536A42,42,0,0,1,532.72,188.7Z" transform="translate(-237.629 -146.16)" fill="#3afffc"/>
    </g>
    <rect id="Rectangle_21" data-name="Rectangle 21" width="762.029" height="63.761" transform="translate(129.863 518.971)" fill="#3afffc"/>
    <rect id="Rectangle_22" data-name="Rectangle 22" width="510.213" height="63.761" transform="translate(1397.455 518.971)" fill="#3afffc"/>
  </g>
</svg>
