<svg xmlns="http://www.w3.org/2000/svg" width="1976.859" height="485.453" viewBox="0 0 1976.859 485.453">
  <g id="Group_34" data-name="Group 34" transform="translate(-129.863 -146.16)">
    <g id="Group_31" data-name="Group 31" transform="translate(139.103 249.096)">
      <path id="Path_23" data-name="Path 23" d="M135.491,445.975a9.289,9.289,0,0,1-2.907-6.781V187.3a9.11,9.11,0,0,1,2.907-6.975,9.629,9.629,0,0,1,6.781-2.713h41.852q9.3,0,13.563,8.523l68.206,122.073,68.2-122.073q4.258-8.511,13.562-8.523h41.465a10.114,10.114,0,0,1,7.168,2.713A9.11,9.11,0,0,1,399.2,187.3v251.89a9.1,9.1,0,0,1-2.907,6.974,10.1,10.1,0,0,1-7.168,2.71H343.009a10.1,10.1,0,0,1-7.172-2.71,9.11,9.11,0,0,1-2.907-6.974V293.871l-43.4,80.994q-5.043,8.919-13.562,8.914H255.814a13.223,13.223,0,0,1-8.136-2.326,20.046,20.046,0,0,1-5.427-6.588l-43.787-80.994V439.194a9.65,9.65,0,0,1-2.713,6.781,9.126,9.126,0,0,1-6.975,2.9h-46.5A9.294,9.294,0,0,1,135.491,445.975Z" transform="translate(-132.584 -173.741)" fill="#e3fffc"/>
      <path id="Path_24" data-name="Path 24" d="M258.163,428.748q-31.387-26.736-33.326-78.665-.387-11.236-.387-33.326,0-22.473.387-33.716,1.936-51.149,33.91-78.862t85.446-27.706q53.477,0,85.643,27.706t33.716,78.862q.769,22.478.774,33.716,0,10.849-.774,33.326-1.946,51.934-33.329,78.665t-86.03,26.741Q289.554,455.49,258.163,428.748ZM378.1,386.9q12.586-12.79,13.369-39.142.769-22.473.774-31.777,0-10.07-.774-31.773-.779-26.349-13.562-39.143t-33.716-12.785q-20.925,0-33.519,12.785t-13.76,39.143q-.387,10.854-.384,31.773,0,20.548.384,31.777,1.166,26.359,13.566,39.142t33.713,12.785Q365.5,399.684,378.1,386.9Z" transform="translate(87.5 -176.474)" fill="#e3fffc"/>
      <path id="Path_25" data-name="Path 25" d="M380.285,437.255,301.229,189.242l-.774-3.49a7.773,7.773,0,0,1,2.52-5.617,8.2,8.2,0,0,1,6-2.52h48.053a13.677,13.677,0,0,1,9.107,3.1,14.732,14.732,0,0,1,4.846,6.975l55.027,179.035L480.652,187.69a14.64,14.64,0,0,1,4.846-6.975,13.65,13.65,0,0,1,9.1-3.1h48.44a8.651,8.651,0,0,1,8.14,8.136l-.774,3.49L471.351,437.255q-3.489,11.623-15.889,11.623H396.17Q383.768,448.878,380.285,437.255Z" transform="translate(269.586 -173.741)" fill="#e3fffc"/>
      <path id="Path_26" data-name="Path 26" d="M559,445.975a9.277,9.277,0,0,1-2.911-6.781V187.3A9.1,9.1,0,0,1,559,180.328a9.619,9.619,0,0,1,6.78-2.713H666.536q56.966,0,88.353,27.128t32.938,78.665q.383,11.247.388,29.838t-.388,29.455q-1.94,53.864-31.97,80.02t-87.382,26.157H565.781A9.285,9.285,0,0,1,559,445.975Zm107.535-52.9q25.574,0,37.59-12.208t12.786-38.945q.774-11.236.777-29.064t-.777-28.673q-.78-25.962-13.757-38.365t-38.558-12.4H625.845V393.076Z" transform="translate(882.013 -173.741)" fill="#e3fffc"/>
      <path id="Path_27" data-name="Path 27" d="M631.643,446.358a7.76,7.76,0,0,1-2.517-5.616,11.642,11.642,0,0,1,.388-3.487l91.069-248.79a14.078,14.078,0,0,1,5.035-7.749,15.641,15.641,0,0,1,10.076-3.1h57.353a15.658,15.658,0,0,1,10.076,3.1,14.142,14.142,0,0,1,5.039,7.749l90.679,248.79.773,3.487a7.773,7.773,0,0,1-2.519,5.616,8.183,8.183,0,0,1-6,2.52H843.427q-9.306,0-12.4-8.136l-15.114-39.529H712.443l-14.727,39.529q-3.107,8.139-12.784,8.136H637.266A7.762,7.762,0,0,1,631.643,446.358ZM800.413,345.414,764.371,243.108,728.332,345.414Z" transform="translate(1056.986 -173.741)" fill="#e3fffc"/>
    </g>
    <g id="Group_33" data-name="Group 33" transform="translate(977.215 146.16)">
      <g id="Group_32" data-name="Group 32" transform="translate(0)">
        <path id="Path_28" data-name="Path 28" d="M379.4,283.435c7.837-26.459,15.8-52.882,23.475-79.388,6.5-22.432,9.953-25.186,33.757-25.186q224.371-.01,448.74,0c22.815,0,26.693,2.958,32.843,24.836,7.277,25.9,14.384,51.842,21.933,77.656,2.2,7.525,2.758,14.381-5.185,18.089-8.472,3.956-13.881-.771-17.878-8.187-7.335-13.61-14.949-27.067-24.568-40.219-.642,11.447-1.44,22.883-1.9,34.337-1.871,46.824-3.525,93.654-5.589,140.467-.25,5.644-.873,12.812-4.319,16.371-3.969,4.1-12.347,8.068-16.853,6.492-5.7-1.99-12.66-9.185-13.447-14.91-3.454-25.1-4.883-50.484-7.02-75.765-.295-3.5-.322-7.026-.665-10.523-.761-7.695-3.844-14.32-12.415-14.381-9.02-.061-12.438,6.238-13.095,14.781q-3.086,40.285-6.757,80.522c-.415,4.547-.719,10.771-3.593,13.056-4.975,3.949-12.038,7.7-18,7.389-8.414-.442-13.209-7.375-13.671-16.361-1.341-26.127-2.8-52.25-4.091-78.38-1.868-37.828-3.9-75.656-5.25-113.505-.329-9.27-2.724-13.552-12.747-12.581-8.47.822-17.081.17-27.1.17-1.453,25.638-3,50.43-4.234,75.239-1.986,40.171-3.756,80.353-5.627,120.527-.111,2.34-.261,4.683-.529,7.009-1.349,11.807-7.375,18.438-17,18.778-9.984.353-17.22-6.455-18.388-18.707-2.184-22.928-3.762-45.91-5.612-68.865-.438-5.447-.84-10.9-1.447-16.33-.842-7.525-4.794-12.89-12.622-12.727-7.742.16-11.6,5.494-12.234,13.111q-3.22,38.513-6.469,77.025c-.326,3.885-.251,7.868-1.111,11.634-2.176,9.539-8.2,15.349-18.221,14.69-9.854-.645-15.715-6.615-16.3-16.646-1.5-25.729-2.777-51.469-4.062-77.208-1.86-37.438-3.626-74.882-5.5-112.323-.231-4.611-.893-9.206-1.49-15.138-11.44,0-22.311-.615-33.009.462-2.466.248-6.042,6.2-6.242,9.691-2.862,49.9-5.232,99.82-7.718,149.74-.7,14.038-1.318,28.083-2.106,42.12-.683,12.191-7.165,19.366-17.332,19.464-10.089.1-16.965-7.09-17.987-19.115-2.313-27.227-4.68-54.454-6.686-81.7-.652-8.866-3.539-15.967-13.3-15.787-9.256.17-11.79,7.61-12.428,15.634-2.136,26.853-4.044,53.723-6.493,80.546-1.256,13.77-7.62,20.486-17.855,20.435-10.812-.051-17.247-7.61-17.848-21.712Q432.467,342.036,428.994,256c-.064-1.545-.3-3.08-.814-8.289-8.683,15.668-15.821,28.643-23.05,41.567-7.706,13.777-12.524,14.846-25.73,5.868Z" transform="translate(-379.399 -67.833)" fill="#3afffc"/>
        <path id="Path_29" data-name="Path 29" d="M447.457,146.162a46.857,46.857,0,1,1-47.35,46.358A46.838,46.838,0,0,1,447.457,146.162Z" transform="translate(-329.795 -146.16)" fill="#3afffc"/>
        <path id="Path_30" data-name="Path 30" d="M590.43,193.512a46.859,46.859,0,1,1-46.358-47.35A46.844,46.844,0,0,1,590.43,193.512Z" transform="translate(-98.34 -146.161)" fill="#3afffc"/>
        <path id="Path_31" data-name="Path 31" d="M542.158,193.461a46.866,46.866,0,1,1-46.354-47.3A46.7,46.7,0,0,1,542.158,193.461Z" transform="translate(-214.028 -146.16)" fill="#3afffc"/>
      </g>
    </g>
    <rect id="Rectangle_18" data-name="Rectangle 18" width="847.351" height="70.901" transform="translate(129.863 560.713)" fill="#3afffc"/>
    <rect id="Rectangle_19" data-name="Rectangle 19" width="567.34" height="70.901" transform="translate(1539.382 560.713)" fill="#3afffc"/>
  </g>
</svg>
