<svg id="eauqqtrlxvfa1" xmlns="http://www.w3.org/2000/svg" xmlns:xlink="http://www.w3.org/1999/xlink" viewBox="0 0 1500 1500" shape-rendering="geometricPrecision" text-rendering="geometricPrecision" width="1500" height="1500"><style><![CDATA[#eauqqtrlxvfa4_to {animation: eauqqtrlxvfa4_to__to 5000ms linear infinite normal forwards}@keyframes eauqqtrlxvfa4_to__to { 0% {transform: translate(422.425000px,0px)} 30% {transform: translate(-3.575000px,0px)} 100% {transform: translate(-3.575000px,0px)} }#eauqqtrlxvfa4 {animation: eauqqtrlxvfa4_c_o 5000ms linear infinite normal forwards}@keyframes eauqqtrlxvfa4_c_o { 0% {opacity: 0} 20% {opacity: 0} 30% {opacity: 1} 100% {opacity: 1} }#eauqqtrlxvfa5_to {animation: eauqqtrlxvfa5_to__to 5000ms linear infinite normal forwards}@keyframes eauqqtrlxvfa5_to__to { 0% {transform: translate(271.950000px,0px)} 30% {transform: translate(-5.050000px,0px)} 100% {transform: translate(-5.050000px,0px)} }#eauqqtrlxvfa5 {animation: eauqqtrlxvfa5_c_o 5000ms linear infinite normal forwards}@keyframes eauqqtrlxvfa5_c_o { 0% {opacity: 0} 20% {opacity: 0} 30% {opacity: 1} 100% {opacity: 1} }#eauqqtrlxvfa6_to {animation: eauqqtrlxvfa6_to__to 5000ms linear infinite normal forwards}@keyframes eauqqtrlxvfa6_to__to { 0% {transform: translate(139.145000px,0px)} 30% {transform: translate(-0.855000px,0px)} 100% {transform: translate(-0.855000px,0px)} }#eauqqtrlxvfa6 {animation: eauqqtrlxvfa6_c_o 5000ms linear infinite normal forwards}@keyframes eauqqtrlxvfa6_c_o { 0% {opacity: 0} 20% {opacity: 0} 30% {opacity: 1} 100% {opacity: 1} }#eauqqtrlxvfa7_to {animation: eauqqtrlxvfa7_to__to 5000ms linear infinite normal forwards}@keyframes eauqqtrlxvfa7_to__to { 0% {transform: translate(-286.795000px,0px)} 30% {transform: translate(-2.795000px,0px)} 100% {transform: translate(-2.795000px,0px)} }#eauqqtrlxvfa7 {animation: eauqqtrlxvfa7_c_o 5000ms linear infinite normal forwards}@keyframes eauqqtrlxvfa7_c_o { 0% {opacity: 0} 20% {opacity: 0} 30% {opacity: 1} 100% {opacity: 1} }#eauqqtrlxvfa8_to {animation: eauqqtrlxvfa8_to__to 5000ms linear infinite normal forwards}@keyframes eauqqtrlxvfa8_to__to { 0% {transform: translate(-421.445000px,0px)} 30% {transform: translate(-1.445000px,0px)} 100% {transform: translate(-1.445000px,0px)} }#eauqqtrlxvfa8 {animation: eauqqtrlxvfa8_c_o 5000ms linear infinite normal forwards}@keyframes eauqqtrlxvfa8_c_o { 0% {opacity: 0} 20% {opacity: 0} 30% {opacity: 1} 100% {opacity: 1} }#eauqqtrlxvfa11_to {animation: eauqqtrlxvfa11_to__to 5000ms linear infinite normal forwards}@keyframes eauqqtrlxvfa11_to__to { 0% {transform: translate(-1.130022px,-174.276301px)} 40% {transform: translate(-1.130022px,-34.276301px)} 100% {transform: translate(-1.130022px,-34.276301px)} }#eauqqtrlxvfa11 {animation: eauqqtrlxvfa11_c_o 5000ms linear infinite normal forwards}@keyframes eauqqtrlxvfa11_c_o { 0% {opacity: 0} 20% {opacity: 0} 40% {opacity: 1} 100% {opacity: 1} }#eauqqtrlxvfa16 {
           animation-name: eauqqtrlxvfa16__sz, eauqqtrlxvfa16_c_o;
           animation-duration: 5000ms;
           animation-fill-mode: forwards;
           animation-timing-function: linear;
           animation-direction: normal;
           animation-iteration-count: infinite;  
        }@keyframes eauqqtrlxvfa16__sz { 0% {width: 561.500301px;height: 35.730000px} 40% {width: 561.500301px;height: 35.730000px} 50% {width: 418.300000px;height: 35.730000px} 100% {width: 418.300000px;height: 35.730000px} }@keyframes eauqqtrlxvfa16_c_o { 0% {opacity: 0} 14% {opacity: 1} 100% {opacity: 1} }#eauqqtrlxvfa17 {
           animation-name: eauqqtrlxvfa17__sz, eauqqtrlxvfa17_c_o;
           animation-duration: 5000ms;
           animation-fill-mode: forwards;
           animation-timing-function: linear;
           animation-direction: normal;
           animation-iteration-count: infinite;  
        }@keyframes eauqqtrlxvfa17__sz { 0% {width: 419.750247px;height: 35.730000px} 40% {width: 419.750247px;height: 35.730000px} 50% {width: 262.660000px;height: 35.730000px} 100% {width: 262.660000px;height: 35.730000px} }@keyframes eauqqtrlxvfa17_c_o { 0% {opacity: 0} 14% {opacity: 1} 100% {opacity: 1} }]]></style><g id="eauqqtrlxvfa2"><g id="eauqqtrlxvfa3"><g id="eauqqtrlxvfa4_to" transform="translate(422.425000,0)"><path id="eauqqtrlxvfa4" d="M231.230000,783.860000C230.250000,782.880000,229.770000,781.740000,229.770000,780.440000L229.770000,653.500000C229.770000,652.070000,230.260000,650.900000,231.230000,649.980000C232.210000,649.070000,233.340000,648.610000,234.650000,648.610000L255.740000,648.610000C258.870000,648.610000,261.140000,650.050000,262.580000,652.910000L296.950000,714.430000L331.320000,652.910000C332.750000,650.050000,335.030000,648.610000,338.160000,648.610000L359.060000,648.610000C360.490000,648.610000,361.700000,649.070000,362.670000,649.980000C363.650000,650.890000,364.130000,652.060000,364.130000,653.500000L364.130000,780.440000C364.130000,781.870000,363.640000,783.050000,362.670000,783.950000C361.690000,784.860000,360.490000,785.320000,359.060000,785.320000L335.820000,785.320000C334.390000,785.320000,333.180000,784.870000,332.210000,783.950000C331.230000,783.040000,330.750000,781.870000,330.750000,780.440000L330.750000,707.200000L308.880000,748.020000C307.190000,751.020000,304.910000,752.510000,302.040000,752.510000L291.880000,752.510000C290.190000,752.510000,288.820000,752.120000,287.780000,751.340000C286.740000,750.560000,285.830000,749.450000,285.050000,748.020000L262.980000,707.200000L262.980000,780.440000C262.980000,781.740000,262.520000,782.880000,261.610000,783.860000C260.700000,784.840000,259.530000,785.320000,258.090000,785.320000L234.650000,785.320000C233.340000,785.330000,232.210000,784.840000,231.230000,783.860000Z" transform="translate(0,0)" opacity="0" fill="rgb(227,255,252)" stroke="none" stroke-width="1"/></g><g id="eauqqtrlxvfa5_to" transform="translate(271.950000,0)"><path id="eauqqtrlxvfa5" d="M403.970000,773.800000C393.420000,764.820000,387.820000,751.600000,387.180000,734.160000C387.050000,730.380000,386.980000,724.790000,386.980000,717.360000C386.980000,709.810000,387.040000,704.150000,387.180000,700.370000C387.830000,683.180000,393.530000,669.940000,404.270000,660.630000C415.010000,651.320000,429.370000,646.670000,447.330000,646.670000C465.290000,646.670000,479.680000,651.330000,490.490000,660.630000C501.300000,669.940000,506.960000,683.190000,507.480000,700.370000C507.740000,707.920000,507.870000,713.590000,507.870000,717.360000C507.870000,721.010000,507.740000,726.610000,507.480000,734.160000C506.830000,751.610000,501.230000,764.820000,490.680000,773.800000C480.130000,782.780000,465.680000,787.280000,447.320000,787.280000C428.970000,787.280000,414.510000,782.790000,403.970000,773.800000ZM464.410000,752.710000C468.640000,748.410000,470.890000,741.840000,471.150000,732.980000C471.410000,725.430000,471.540000,720.090000,471.540000,716.960000C471.540000,713.580000,471.410000,708.240000,471.150000,700.950000C470.890000,692.100000,468.610000,685.520000,464.310000,681.220000C460.010000,676.920000,454.350000,674.780000,447.320000,674.780000C440.290000,674.780000,434.660000,676.930000,430.430000,681.220000C426.200000,685.520000,423.890000,692.090000,423.500000,700.950000C423.370000,704.600000,423.310000,709.930000,423.310000,716.960000C423.310000,723.860000,423.370000,729.200000,423.500000,732.980000C423.890000,741.840000,426.170000,748.410000,430.340000,752.710000C434.500000,757.010000,440.170000,759.150000,447.330000,759.150000C454.480000,759.160000,460.180000,757.010000,464.410000,752.710000Z" transform="translate(0,0)" opacity="0" fill="rgb(227,255,252)" stroke="none" stroke-width="1"/></g><g id="eauqqtrlxvfa6_to" transform="translate(139.145000,0)"><path id="eauqqtrlxvfa6" d="M557.280000,779.470000L517.440000,654.480000L517.050000,652.720000C517.050000,651.680000,517.470000,650.740000,518.320000,649.890000C519.160000,649.040000,520.180000,648.620000,521.350000,648.620000L545.570000,648.620000C547.390000,648.620000,548.920000,649.140000,550.160000,650.180000C551.400000,651.220000,552.210000,652.400000,552.600000,653.700000L580.330000,743.930000L607.870000,653.700000C608.260000,652.400000,609.070000,651.230000,610.310000,650.180000C611.550000,649.140000,613.070000,648.620000,614.900000,648.620000L639.310000,648.620000C640.350000,648.620000,641.290000,649.040000,642.140000,649.890000C642.990000,650.740000,643.410000,651.680000,643.410000,652.720000L643.020000,654.480000L603.180000,779.470000C602.010000,783.380000,599.340000,785.330000,595.170000,785.330000L565.290000,785.330000C561.120000,785.330000,558.450000,783.370000,557.280000,779.470000Z" transform="translate(0,0)" opacity="0" fill="rgb(227,255,252)" stroke="none" stroke-width="1"/></g></g><g id="eauqqtrlxvfa7_to" transform="translate(-286.795000,0)"><path id="eauqqtrlxvfa7" d="M949.140000,783.860000C948.160000,782.880000,947.670000,781.740000,947.670000,780.440000L947.670000,653.500000C947.670000,652.070000,948.160000,650.900000,949.140000,649.980000C950.120000,649.070000,951.250000,648.610000,952.560000,648.610000L1003.340000,648.610000C1022.480000,648.610000,1037.320000,653.170000,1047.870000,662.280000C1058.420000,671.390000,1063.950000,684.610000,1064.470000,701.920000C1064.600000,705.700000,1064.670000,710.710000,1064.670000,716.960000C1064.670000,723.210000,1064.600000,728.160000,1064.470000,731.800000C1063.820000,749.900000,1058.450000,763.340000,1048.360000,772.130000C1038.270000,780.920000,1023.590000,785.310000,1004.320000,785.310000L952.570000,785.310000C951.260000,785.330000,950.120000,784.840000,949.140000,783.860000ZM1003.340000,757.200000C1011.930000,757.200000,1018.250000,755.150000,1022.280000,751.050000C1026.310000,746.950000,1028.460000,740.410000,1028.720000,731.420000C1028.980000,727.640000,1029.110000,722.760000,1029.110000,716.770000C1029.110000,710.780000,1028.980000,705.970000,1028.720000,702.320000C1028.460000,693.600000,1026.150000,687.150000,1021.790000,682.990000C1017.430000,678.820000,1010.950000,676.740000,1002.360000,676.740000L982.830000,676.740000L982.830000,757.200000L1003.340000,757.200000Z" transform="translate(0,0)" opacity="0" fill="rgb(227,255,252)" stroke="none" stroke-width="1"/></g><g id="eauqqtrlxvfa8_to" transform="translate(-421.445000,0)"><path id="eauqqtrlxvfa8" d="M1073.930000,784.060000C1073.080000,783.220000,1072.660000,782.270000,1072.660000,781.230000C1072.660000,780.450000,1072.720000,779.860000,1072.860000,779.470000L1118.750000,654.090000C1119.140000,652.530000,1119.980000,651.230000,1121.290000,650.180000C1122.590000,649.140000,1124.280000,648.620000,1126.370000,648.620000L1155.270000,648.620000C1157.350000,648.620000,1159.050000,649.140000,1160.350000,650.180000C1161.650000,651.220000,1162.500000,652.520000,1162.890000,654.090000L1208.590000,779.470000L1208.980000,781.230000C1208.980000,782.270000,1208.560000,783.220000,1207.710000,784.060000C1206.860000,784.910000,1205.860000,785.330000,1204.680000,785.330000L1180.660000,785.330000C1177.530000,785.330000,1175.450000,783.960000,1174.410000,781.230000L1166.790000,761.310000L1114.650000,761.310000L1107.230000,781.230000C1106.190000,783.960000,1104.040000,785.330000,1100.790000,785.330000L1076.770000,785.330000C1075.720000,785.330000,1074.780000,784.900000,1073.930000,784.060000ZM1158.990000,733.180000L1140.830000,681.620000L1122.670000,733.180000L1158.990000,733.180000Z" transform="translate(0,0)" opacity="0" fill="rgb(227,255,252)" stroke="none" stroke-width="1"/></g></g><g id="eauqqtrlxvfa9"><g id="eauqqtrlxvfa10"><g id="eauqqtrlxvfa11_to" transform="translate(-1.130022,-174.276301)"><g id="eauqqtrlxvfa11" transform="translate(0,0)" opacity="0"><path id="eauqqtrlxvfa12" d="M652.460000,742.170000C656.260000,729.330000,660.120000,716.520000,663.850000,703.660000C667,692.780000,668.680000,691.440000,680.230000,691.440000C752.800000,691.440000,825.360000,691.440000,897.930000,691.440000C909,691.440000,910.880000,692.880000,913.860000,703.490000C917.390000,716.050000,920.840000,728.640000,924.500000,741.160000C925.570000,744.810000,925.840000,748.140000,921.980000,749.940000C917.870000,751.860000,915.250000,749.570000,913.310000,745.970000C909.750000,739.370000,906.060000,732.840000,901.390000,726.460000C901.080000,732.010000,900.690000,737.560000,900.470000,743.120000C899.560000,765.840000,898.760000,788.550000,897.760000,811.270000C897.640000,814.010000,897.340000,817.480000,895.670000,819.210000C893.740000,821.200000,889.680000,823.120000,887.490000,822.360000C884.720000,821.390000,881.350000,817.900000,880.970000,815.130000C879.290000,802.950000,878.600000,790.640000,877.560000,778.370000C877.420000,776.670000,877.400000,774.960000,877.240000,773.270000C876.870000,769.540000,875.380000,766.320000,871.220000,766.290000C866.850000,766.260000,865.190000,769.320000,864.870000,773.460000C863.870000,786.490000,862.780000,799.510000,861.590000,812.530000C861.390000,814.740000,861.240000,817.760000,859.850000,818.860000C857.440000,820.780000,854.010000,822.600000,851.120000,822.450000C847.040000,822.230000,844.710000,818.870000,844.490000,814.510000C843.840000,801.830000,843.130000,789.160000,842.510000,776.490000C841.600000,758.140000,840.620000,739.790000,839.960000,721.430000C839.800000,716.930000,838.640000,714.850000,833.770000,715.330000C829.660000,715.730000,825.480000,715.410000,820.620000,715.410000C819.910000,727.850000,819.160000,739.880000,818.570000,751.910000C817.610000,771.400000,816.750000,790.890000,815.840000,810.380000C815.790000,811.520000,815.710000,812.650000,815.580000,813.780000C814.930000,819.510000,812,822.730000,807.330000,822.890000C802.490000,823.060000,798.980000,819.760000,798.410000,813.810000C797.350000,802.690000,796.580000,791.540000,795.690000,780.400000C795.480000,777.760000,795.280000,775.110000,794.990000,772.480000C794.580000,768.830000,792.660000,766.230000,788.870000,766.310000C785.110000,766.390000,783.240000,768.980000,782.930000,772.670000C781.890000,785.130000,780.840000,797.580000,779.790000,810.040000C779.630000,811.930000,779.670000,813.860000,779.250000,815.690000C778.190000,820.320000,775.270000,823.130000,770.410000,822.820000C765.630000,822.510000,762.790000,819.610000,762.500000,814.740000C761.770000,802.260000,761.150000,789.770000,760.530000,777.280000C759.630000,759.120000,758.770000,740.950000,757.860000,722.790000C757.750000,720.550000,757.430000,718.320000,757.140000,715.440000C751.590000,715.440000,746.320000,715.140000,741.130000,715.660000C739.930000,715.780000,738.200000,718.670000,738.100000,720.360000C736.710000,744.570000,735.560000,768.790000,734.360000,793C734.020000,799.810000,733.720000,806.620000,733.340000,813.430000C733.010000,819.350000,729.860000,822.830000,724.930000,822.870000C720.030000,822.920000,716.700000,819.430000,716.200000,813.600000C715.080000,800.390000,713.930000,787.180000,712.960000,773.960000C712.640000,769.660000,711.240000,766.210000,706.510000,766.300000C702.020000,766.380000,700.790000,769.990000,700.480000,773.890000C699.440000,786.920000,698.520000,799.950000,697.330000,812.960000C696.720000,819.640000,693.630000,822.900000,688.670000,822.870000C683.430000,822.840000,680.300000,819.180000,680.010000,812.340000C678.820000,784.520000,677.700000,756.690000,676.540000,728.870000C676.510000,728.120000,676.400000,727.380000,676.140000,724.850000C671.930000,732.450000,668.460000,738.740000,664.960000,745.010000C661.220000,751.690000,658.880000,752.210000,652.480000,747.860000C652.460000,745.960000,652.460000,744.060000,652.460000,742.170000Z" fill="rgb(0,237,208)" stroke="none" stroke-width="1"/><path id="eauqqtrlxvfa13" d="M709.550000,637.570000C722.090000,637.680000,732.150000,647.960000,732.040000,660.540000C731.930000,673.080000,721.650000,683.140000,709.070000,683.030000C696.540000,682.920000,686.470000,672.640000,686.580000,660.060000C686.680000,647.530000,696.970000,637.460000,709.550000,637.570000Z" fill="rgb(0,237,208)" stroke="none" stroke-width="1"/><path id="eauqqtrlxvfa14" d="M891.190000,660.540000C891.080000,673.070000,880.800000,683.140000,868.220000,683.030000C855.690000,682.920000,845.620000,672.640000,845.730000,660.060000C845.840000,647.520000,856.120000,637.460000,868.700000,637.570000C881.240000,637.680000,891.300000,647.960000,891.190000,660.540000Z" fill="rgb(0,237,208)" stroke="none" stroke-width="1"/><path id="eauqqtrlxvfa15" d="M811.650000,660.520000C811.560000,673.090000,801.340000,683.130000,788.730000,683.030000C776.220000,682.930000,766.060000,672.590000,766.180000,660.080000C766.290000,647.580000,776.610000,637.470000,789.160000,637.570000C801.720000,637.670000,811.740000,647.900000,811.650000,660.520000Z" fill="rgb(0,237,208)" stroke="none" stroke-width="1"/></g></g></g></g><rect id="eauqqtrlxvfa16" width="561.500301" height="35.730000" rx="0" ry="0" transform="matrix(1 0 0 1 226.19499999999994 803.71000000000004)" opacity="0" fill="rgb(0,237,208)" stroke="none" stroke-width="1"/><rect id="eauqqtrlxvfa17" width="419.750247" height="35.730000" rx="0" ry="0" transform="matrix(-1 0 0 1 1207.53499999999758 803.71000000000038)" opacity="0" fill="rgb(0,237,208)" stroke="none" stroke-width="1"/></svg>